<svg xmlns="http://www.w3.org/2000/svg" viewBox="0 0 18 23"><defs><style>.cls-1{fill:#f1c40f;}.cls-2{fill:#f39c12;}.cls-3{fill:#bdc3c7;}.cls-4{fill:#e67e22;}.cls-5{fill:#7f8c8d;}.cls-6{fill:#95a5a6;}</style></defs><g id="Layer_2" data-name="Layer 2"><g id="Layer_1-2" data-name="Layer 1"><path class="cls-1" d="M2,8a2,2,0,0,0-2,2v8a2,2,0,0,0,2,2H16a2,2,0,0,0,2-2V10a2,2,0,0,0-2-2H2Z"/><path class="cls-2" d="M2,11a2,2,0,0,0-2,2v8a2,2,0,0,0,2,2H16a2,2,0,0,0,2-2V13a2,2,0,0,0-2-2H2Z"/><path class="cls-3" d="M9,0A7,7,0,0,0,2,7H5a4,4,0,0,1,8,0h3A7,7,0,0,0,9,0Z"/><path class="cls-4" d="M2,13v1H16V13Zm0,2v1H16V15Zm0,2v1H16V17Zm0,2v1H16V19Z"/><path class="cls-5" d="M2,8V9c0,.5.67,1,1.5,1S5,9.5,5,9V8c0,.5-.67,1-1.5,1S2,8.5,2,8Z"/><path class="cls-5" d="M13,8V9c0,.5.67,1,1.5,1S16,9.5,16,9V8c0,.5-.67,1-1.5,1S13,8.5,13,8Z"/><path class="cls-6" d="M9,1.44a5.8,5.8,0,0,0-1,.09,5.42,5.42,0,0,0-.72.19A4.86,4.86,0,0,0,6.62,2l-.31.15-.37.25c-.12.08-.24.14-.35.22a3.34,3.34,0,0,0-.4.35s-.06.09-.1.12-.33.34-.47.53a4,4,0,0,0-.37.63v0A4.25,4.25,0,0,0,4,5,1.87,1.87,0,0,1,2.22,6H2.06L2,7V9H5V7a4.27,4.27,0,0,1,.09-.81A4,4,0,0,1,13,7V9h3V7l-.06-1h-.16A1.87,1.87,0,0,1,14,5a4.25,4.25,0,0,0-.28-.75v0a5,5,0,0,0-.37-.63,5.76,5.76,0,0,0-.47-.53s-.06-.09-.1-.12a3.34,3.34,0,0,0-.4-.35c-.11-.08-.24-.14-.35-.21s-.24-.18-.37-.26L11.38,2a4.86,4.86,0,0,0-.63-.25A5.42,5.42,0,0,0,10,1.53,5.8,5.8,0,0,0,9,1.44Z"/></g></g></svg>