<svg xmlns="http://www.w3.org/2000/svg" viewBox="0 0 60.59 58"><defs><style>.cls-1{fill:#bddbff;}.cls-2{fill:#3d9ae2;}</style></defs><g id="Layer_2" data-name="Layer 2"><g id="Layer_1-2" data-name="Layer 1"><path class="cls-1" d="M37,8v7H9.1a.81.81,0,0,1,.19-.29l7.42-7.42a1,1,0,0,1,.7-.29H37Z"/><path class="cls-1" d="M37,16v6a1,1,0,0,0,1,1H51V35H43a1,1,0,0,0-1,1v4a1,1,0,0,0,1,1h8v9a1,1,0,0,1-1,1H31a2,2,0,0,0-2-2h4a2,2,0,0,0,2-2,2,2,0,0,0-2-2H29a2,2,0,0,0,2-2,2,2,0,0,0-2-2H17.24a1,1,0,0,1-.55-.17,1,1,0,0,1-.37-.45,1,1,0,0,1-.06-.58,1,1,0,0,1,.28-.51l.29-.29,2.83-2.83a1.8,1.8,0,0,0,.43-.65,2,2,0,0,0,0-1.52,1.8,1.8,0,0,0-.43-.65h0a1.8,1.8,0,0,0-.65-.43,2,2,0,0,0-1.52,0,1.8,1.8,0,0,0-.65.43L9.46,40.71A1,1,0,0,1,9,41V15.41A.86.86,0,0,1,9.1,15H37ZM23,28V20a1,1,0,0,0-1-1H14a1,1,0,0,0-1,1v8a1,1,0,0,0,1,1h8a1,1,0,0,0,1-1Z"/><path class="cls-2" d="M43.62,7.08a.94.94,0,0,0-.45.36A1,1,0,0,0,43,8v8h2V10.41l2.29,2.3a1,1,0,0,0,1.42,0L51,10.41V16h2V8a1,1,0,0,0-.17-.56.94.94,0,0,0-.45-.36A.93.93,0,0,0,51.81,7a1,1,0,0,0-.52.27L48,10.59l-3.29-3.3A1,1,0,0,0,44.19,7,.93.93,0,0,0,43.62,7.08Z"/><path class="cls-2" d="M33,44H31.82A3,3,0,0,0,32,42.59a2.92,2.92,0,0,0-1.59-2.26A3,3,0,0,0,29,40H17.24l3.13-3.12a3,3,0,0,0-4.25-4.25L10,38.76V16H34V14H11.41l6-6H34V6H17a1,1,0,0,0-.71.29l-8,8A1,1,0,0,0,8,15V36H2a2,2,0,0,0-1.41.59A2,2,0,0,0,0,38V54a2,2,0,0,0,.59,1.41A2,2,0,0,0,2,56H6.59L8,57.41A2,2,0,0,0,9.41,58H25a3,3,0,0,0,1.14-.22,3,3,0,0,0,1-.65,3.11,3.11,0,0,0,.71-1.1A3,3,0,0,0,28,54.74a2.43,2.43,0,0,0-.18-.74H29a3,3,0,0,0,1.38-.33A2.92,2.92,0,0,0,32,51.41,3,3,0,0,0,31.82,50H33a3,3,0,0,0,0-6ZM2,38H8v2H2ZM33,48H17v2H29a1,1,0,1,1,0,2H17v2h7.89a1.1,1.1,0,0,1,.73.25,1.06,1.06,0,0,1,.38.66,1.09,1.09,0,0,1-.06.44,1.11,1.11,0,0,1-.25.36,1.1,1.1,0,0,1-.31.22A1,1,0,0,1,25,56H9.41L8,54.59A2,2,0,0,0,6.59,54H2V42H8.76a2,2,0,0,0,1.41-.59l7.37-7.36a1,1,0,0,1,.69-.24,1,1,0,0,1,1,1,1,1,0,0,1-.24.69l-3.12,3.13a2,2,0,0,0-.55,1,2.09,2.09,0,0,0,.12,1.16A2,2,0,0,0,17.24,42H29a1,1,0,1,1,0,2H17v2H33a1,1,0,1,1,0,2Z"/><path class="cls-2" d="M50,50H34v2H51a1,1,0,0,0,1-1V47H50Z"/><path class="cls-2" d="M52,26H50v3h2Z"/><path class="cls-2" d="M60,36.59l-.06-.06L53.41,31a2,2,0,0,0-1-.55,2.09,2.09,0,0,0-1.16.12,2,2,0,0,0-.89.73A2,2,0,0,0,50,32.41V34H43a2,2,0,0,0-2,2v4a2,2,0,0,0,2,2h7v1.59a2,2,0,0,0,.34,1.11,2,2,0,0,0,.9.73,1.95,1.95,0,0,0,2.11-.37L60,39.41a2,2,0,0,0,0-2.82Zm-8,7V41a1,1,0,0,0-1-1H43V36h8a1,1,0,0,0,1-1l.06-2.53L58.58,38Z"/><path class="cls-2" d="M42,26H28v2H42Z"/><path class="cls-2" d="M46,30H28v2H46Z"/><path class="cls-2" d="M14,20h3V18H14a2,2,0,0,0-2,2v3h2Z"/><path class="cls-2" d="M12,28a2,2,0,0,0,2,2h3V28H14V25H12Z"/><path class="cls-2" d="M24,20a2,2,0,0,0-2-2H19v2h3v3h2Z"/><path class="cls-2" d="M22,28H19v2h3a2,2,0,0,0,2-2V25H22Z"/><path class="cls-2" d="M34,10H30v2h4Z"/><path class="cls-2" d="M28,10H24v2h4Z"/><path class="cls-2" d="M22,10H18v2h4Z"/><path class="cls-2" d="M58,8h2V2A2,2,0,0,0,59.41.59,2,2,0,0,0,58,0H52V2h6Z"/><path class="cls-2" d="M38,8H36V2A2,2,0,0,1,36.59.59,2,2,0,0,1,38,0h6V2H38Z"/><path class="cls-2" d="M60,22V16H58v6H52v2h6a2,2,0,0,0,2-2Z"/><path class="cls-2" d="M38,24h6V22H38V16H36v6a2,2,0,0,0,2,2Z"/></g></g></svg>