<?xml version="1.0" encoding="iso-8859-1"?>
<!-- Generator: Adobe Illustrator 21.0.0, SVG Export Plug-In . SVG Version: 6.00 Build 0)  -->
<svg version="1.1" xmlns="http://www.w3.org/2000/svg" xmlns:xlink="http://www.w3.org/1999/xlink" x="0px" y="0px"
	 viewBox="0 0 32 32" style="enable-background:new 0 0 32 32;" xml:space="preserve">
<g id="Target">
	<g>
		<rect y="0" style="fill:none;" width="32" height="32"/>
		<g>
			<g>
				<path style="fill:#F26C9A;" d="M14,32C6.28,32,0,25.72,0,18S6.28,4,14,4s14,6.28,14,14S21.72,32,14,32z"/>
			</g>
			<path style="fill:#D95782;" d="M28,18c0-7.72-6.28-14-14-14v28C21.72,32,28,25.72,28,18z"/>
			<g>
				<path style="fill:#D7EBFF;" d="M14,28C8.486,28,4,23.514,4,18S8.486,8,14,8s10,4.486,10,10S19.514,28,14,28z"/>
			</g>
			<path style="fill:#BDDEFF;" d="M24,18c0-5.514-4.486-10-10-10v20C19.514,28,24,23.514,24,18z"/>
			<g>
				<path style="fill:#F26C9A;" d="M14,24c-3.309,0-6-2.691-6-6s2.691-6,6-6s6,2.691,6,6S17.309,24,14,24z"/>
			</g>
			<path style="fill:#D95782;" d="M20,18c0-3.309-2.691-6-6-6v12C17.309,24,20,21.309,20,18z"/>
			<g>
				<path style="fill:#665247;" d="M14,19c-0.256,0-0.512-0.098-0.707-0.293c-0.391-0.391-0.391-1.023,0-1.414l9-9
					c0.391-0.391,1.023-0.391,1.414,0s0.391,1.023,0,1.414l-9,9C14.512,18.903,14.256,19,14,19z"/>
			</g>
			<g>
				<path style="fill:#36D9D9;" d="M27,10h-4c-0.553,0-1-0.447-1-1V5c0-0.266,0.105-0.52,0.293-0.707l4-4
					c0.286-0.286,0.716-0.372,1.09-0.217C27.757,0.231,28,0.596,28,1v3h3c0.404,0,0.77,0.243,0.924,0.617
					c0.155,0.374,0.069,0.804-0.217,1.09l-4,4C27.52,9.895,27.266,10,27,10z"/>
			</g>
			<path style="fill:#43BFBF;" d="M22.192,9.558C22.372,9.819,22.659,10,23,10h4c0.266,0,0.52-0.105,0.707-0.293l4-4
				c0.286-0.286,0.372-0.716,0.217-1.09C31.77,4.243,31.404,4,31,4h-3V3.75L22.192,9.558z"/>
		</g>
	</g>
</g>
<g id="Layer_1">
</g>
</svg>
