<svg xmlns="http://www.w3.org/2000/svg" xmlns:xlink="http://www.w3.org/1999/xlink" viewBox="0 0 43.05 43.06"><defs><style>.cls-1{fill:url(#linear-gradient);}.cls-2{fill:url(#linear-gradient-2);}</style><linearGradient id="linear-gradient" y1="23.58" x2="43.05" y2="23.58" gradientTransform="matrix(1, 0, 0, -1, 0, 45.1)" gradientUnits="userSpaceOnUse"><stop offset="0" stop-color="#19dd33"/><stop offset="0.43" stop-color="#0fa922"/><stop offset="0.8" stop-color="#088215"/><stop offset="1" stop-color="#057310"/></linearGradient><linearGradient id="linear-gradient-2" x1="725.82" y1="32.07" x2="1541.02" y2="32.07" xlink:href="#linear-gradient"/></defs><g id="Layer_2" data-name="Layer 2"><g id="Layer_1-2" data-name="Layer 1"><path class="cls-1" d="M41.18,12.9a1.5,1.5,0,0,0-.83-.77,1.51,1.51,0,0,0-1.91,2c5.48,11.81-3.88,26.21-16.94,25.93A18.52,18.52,0,0,1,3,21.55C2.72,8.49,17.12-.87,28.93,4.61a1.48,1.48,0,0,0,.58.13,1.41,1.41,0,0,0,.58-.09,1.38,1.38,0,0,0,.5-.32,1.36,1.36,0,0,0,.34-.48,1.26,1.26,0,0,0,.14-.57A1.49,1.49,0,0,0,31,2.69a1.38,1.38,0,0,0-.32-.5,1.54,1.54,0,0,0-.49-.34C16.42-4.51-.32,6.36,0,21.55a21.53,21.53,0,0,0,21.5,21.5C36.68,43.37,47.56,26.63,41.18,12.9Z"/><path class="cls-2" d="M17.24,13.94a1.49,1.49,0,0,0-2.69.37,1.45,1.45,0,0,0,.08,1.1l5.56,9.88a1.5,1.5,0,0,0,.49.51,1.64,1.64,0,0,0,.67.24,1.51,1.51,0,0,0,.7-.1,1.43,1.43,0,0,0,.58-.41l20-23a1.51,1.51,0,0,0-2.26-2L21.76,22Z"/></g></g></svg>