<svg xmlns="http://www.w3.org/2000/svg" viewBox="0 0 46 46"><defs><style>.cls-1{fill:#444;}.cls-2{fill:#e86c60;}</style></defs><g id="Layer_2" data-name="Layer 2"><g id="Layer_1-2" data-name="Layer 1"><path class="cls-1" d="M7,26H1a1,1,0,0,1,0-2H7a1,1,0,0,1,0,2Z"/><path class="cls-1" d="M11.19,14.19a1,1,0,0,1-.71-.29L6.29,9.71A1,1,0,0,1,7.71,8.29l4.18,4.19a1,1,0,0,1-.7,1.71Z"/><path class="cls-1" d="M34.81,14.19a1,1,0,0,1-.7-1.71l4.18-4.19a1,1,0,0,1,1.42,1.42L35.52,13.9A1,1,0,0,1,34.81,14.19Z"/><path class="cls-1" d="M7,44a1,1,0,0,1-.71-.29,1,1,0,0,1,0-1.42l4.19-4.18a1,1,0,0,1,1.42,0,1,1,0,0,1,0,1.41L7.71,43.71A1,1,0,0,1,7,44Z"/><path class="cls-1" d="M39,44a1,1,0,0,1-.71-.29L34.1,39.52a1,1,0,0,1,0-1.41,1,1,0,0,1,1.42,0l4.19,4.18a1,1,0,0,1,0,1.42A1,1,0,0,1,39,44Z"/><path class="cls-1" d="M45,26H39a1,1,0,0,1,0-2h6a1,1,0,0,1,0,2Z"/><path class="cls-2" d="M31.32,8.56a1,1,0,0,0-.55-.17h0l-15.58,0a1,1,0,0,0-.55.17C9.31,12.13,6,18.8,6,26c0,11,7.63,20,17,20s17-9,17-20C40,18.78,36.68,12.09,31.32,8.56Z"/><path class="cls-1" d="M33.71.29a1,1,0,0,0-1.42,0L28.6,4A8.87,8.87,0,0,0,17.4,4L13.71.29a1,1,0,0,0-1.42,1.42L16,5.4a9,9,0,0,0-1.89,4.42,1.07,1.07,0,0,0,.05.47C14.43,11.1,19.2,14,23,14s8.58-2.9,8.86-3.71a1.07,1.07,0,0,0,.05-.47A9,9,0,0,0,30,5.4l3.69-3.69A1,1,0,0,0,33.71.29Z"/><path class="cls-1" d="M23,46c.34,0,.67,0,1-.06V13a1,1,0,0,0-2,0V45.94C22.33,46,22.66,46,23,46Z"/><circle class="cls-1" cx="14" cy="22" r="3"/><circle class="cls-1" cx="16.5" cy="33.5" r="2.5"/><circle class="cls-1" cx="32" cy="22" r="3"/><circle class="cls-1" cx="29.5" cy="33.5" r="2.5"/></g></g></svg>